<svg width="229" height="64" viewBox="0 0 229 64" fill="none" xmlns="http://www.w3.org/2000/svg">
<path d="M9.0625 27.375V64H0V0H9.0625V18.3125H36.625V27.375H9.0625ZM36.625 27.375H45.6875V64H36.625V27.375Z" fill="#06872C"/>
<path d="M91.375 18.3125V27.375H63.8125V18.3125H91.375ZM91.375 27.375H100.438V45.6875H63.8125V54.9375H54.75V27.375H63.8125V36.625H91.375V27.375ZM100.438 64H63.8125V54.9375H100.438V64Z" fill="#06872C"/>
<path d="M164.25 64V18.3125H173.312V64H164.25ZM164.25 0H173.312V9.0625H164.25V0Z" fill="#06872C"/>
<path d="M219 18.3125V27.375H191.438V18.3125H219ZM219 27.375H228.062V45.6875H191.438V54.9375H182.375V27.375H191.438V36.625H219V27.375ZM228.062 64H191.438V54.9375H228.062V64Z" fill="#06872C"/>
<path d="M136.875 36.625H146.125L155.188 27.375V18.3125H146.125L136.875 27.375V36.625Z" fill="#06872C"/>
<path d="M127.812 36.625V27.375L118.562 18.3125H109.5V27.375L118.562 36.625H127.812Z" fill="#06872C"/>
<path d="M136.875 36.625H127.812V45.6875H136.875V36.625Z" fill="#06872C"/>
<path d="M136.875 45.6875V54.9375L146.125 64H155.188V54.9375L146.125 45.6875H136.875Z" fill="#06872C"/>
<path d="M109.5 54.9375V64H118.562L127.812 54.9375V45.6875H118.562L109.5 54.9375Z" fill="#06872C"/>
</svg>
